# xmcd
#
# Track frame offsets:
#	150
#	15797
#	26012
#	35985
#	45872
#	55820
#	67310
#	80452
#	90687
#	103502
#
# Disc length: 1738 seconds
#
# Revision: 0
# Processed by: cddbd v1.4PL0 Copyright (c) Steve Scherf et al.
# Submitted via: dBpowerAMP V4.0
#
DISCID=7706c80a
DTITLE=Various Artist - Country Gentlemen
DYEAR=1900
DGENRE=
TTITLE0=01 Cal Smith - Country Bumpkin
TTITLE1=02 Porter Wagoner - Green, Green Grass of Home
TTITLE2=03 Hank Locklin - Please Help Me, I'm Falling
TTITLE3=04 Ned Miller - From A Jack To A King
TTITLE4=05 Ray Price - Make The World Go Away
TTITLE5=06Don Gibson - Sea Of Heartbreak
TTITLE6=07 Faron Young - It's Four In The Morning
TTITLE7=08 Glenn Yarbrough - Baby The Rain Must Fall
TTITLE8=09 David Houston - My Elusive Dreams
TTITLE9=10 Jimmy Dean - To A Sleeping Beauty
EXTD=
EXTT0=
EXTT1=
EXTT2=
EXTT3=
EXTT4=
EXTT5=
EXTT6=
EXTT7=
EXTT8=
EXTT9=
PLAYORDER=
